<?xml version="1.0" standalone="no"?>
<!DOCTYPE svg PUBLIC "-//W3C//DTD SVG 20010904//EN"
 "http://www.w3.org/TR/2001/REC-SVG-20010904/DTD/svg10.dtd">
<svg version="1.0" xmlns="http://www.w3.org/2000/svg"
 width="466.000000pt" height="466.000000pt" viewBox="0 0 466.000000 466.000000"
 preserveAspectRatio="xMidYMid meet">
<metadata>
Created by potrace 1.14, written by Peter Selinger 2001-2017
</metadata>
<g transform="translate(0.000000,466.000000) scale(0.100000,-0.100000)"
fill="#000000" stroke="none">
<path d="M502 4035 c-44 -24 -48 -33 -24 -65 43 -57 26 -259 -35 -432 -19 -53
-24 -81 -17 -88 5 -5 37 -15 69 -21 72 -12 226 -86 282 -134 42 -36 78 -45 86
-22 2 6 0 28 -4 47 -33 140 31 385 109 423 19 8 27 20 27 37 0 22 -4 25 -35
22 -117 -11 -194 16 -328 115 -60 45 -62 48 -56 81 10 50 -22 66 -74 37z m248
-264 c36 -17 73 -31 82 -31 28 0 29 -15 4 -71 -27 -64 -43 -129 -52 -221 -3
-38 -8 -68 -9 -68 -2 0 -36 18 -77 39 -40 22 -101 48 -136 57 -72 20 -68 8
-33 129 12 39 24 102 27 140 3 39 7 85 10 102 l5 33 57 -40 c32 -21 87 -53
122 -69z"/>
<path d="M1945 3819 c-40 -12 -55 -35 -55 -86 0 -54 26 -83 74 -83 51 0 86 46
86 110 0 67 -28 82 -105 59z m45 -65 c0 -13 -21 -44 -30 -44 -14 0 -12 24 2
38 13 13 28 16 28 6z"/>
<path d="M1976 3595 c-51 -18 -88 -55 -126 -126 -17 -32 -34 -59 -38 -59 -4 0
-16 14 -26 31 -27 46 -60 57 -94 33 -58 -43 -81 -142 -82 -349 l0 -110 -71
-27 -70 -26 -94 44 c-160 75 -225 80 -289 24 -51 -45 -78 -119 -83 -225 -5
-100 11 -149 56 -171 50 -25 79 21 39 63 -46 49 -23 216 37 273 20 19 32 22
68 18 46 -5 214 -82 258 -119 22 -17 30 -19 48 -10 11 7 21 20 21 30 0 13 16
24 58 39 160 57 272 77 527 93 180 11 225 21 225 53 0 33 -24 37 -191 26 -197
-13 -312 -26 -397 -45 -35 -8 -68 -15 -74 -15 -16 0 -2 263 17 328 9 29 19 52
23 52 4 0 19 -20 34 -43 38 -61 65 -84 84 -72 8 6 26 36 39 68 42 105 104 177
139 164 7 -3 28 -30 45 -60 36 -63 92 -117 121 -117 27 0 52 27 97 104 20 36
40 66 44 66 11 0 17 -81 23 -266 3 -118 9 -171 21 -202 l17 -42 120 0 120 0
54 48 c104 93 309 182 419 182 66 0 96 -22 134 -99 45 -89 55 -151 42 -266
l-10 -100 58 -60 c72 -74 102 -118 179 -265 79 -150 94 -218 93 -415 -2 -304
-57 -487 -224 -734 -123 -182 -315 -315 -577 -399 -208 -66 -374 -87 -680 -86
-200 0 -271 4 -387 22 -355 55 -494 120 -644 299 -80 94 -218 291 -254 363
-61 120 -78 270 -55 475 13 112 34 190 75 280 49 108 82 155 108 155 43 0 60
35 31 64 -21 22 -66 20 -97 -4 -38 -30 -112 -164 -146 -265 -42 -126 -55 -216
-55 -390 -1 -219 25 -303 151 -480 35 -49 83 -117 106 -150 23 -33 87 -105
142 -161 84 -84 114 -108 185 -143 204 -100 654 -163 1007 -141 580 37 946
206 1166 537 173 261 234 478 225 807 -6 205 -19 256 -110 421 -74 133 -109
186 -164 245 l-42 45 -4 135 c-5 148 -20 204 -79 294 -45 67 -81 90 -154 94
-120 8 -335 -75 -462 -177 l-60 -49 -87 -3 c-65 -3 -87 -1 -91 9 -3 8 -5 64
-5 125 -1 146 -16 297 -34 342 -12 28 -20 35 -44 35 -35 0 -68 -33 -112 -112
-17 -32 -36 -60 -41 -63 -8 -6 -42 38 -88 114 -31 50 -64 63 -115 46z"/>
<path d="M1035 3508 c-11 -6 -21 -12 -23 -13 -2 -2 -5 -17 -7 -35 -10 -80 60
-147 125 -120 50 21 76 92 50 140 -18 34 -104 51 -145 28z m84 -57 c19 -12 4
-51 -20 -51 -22 0 -34 22 -25 45 6 17 24 19 45 6z"/>
<path d="M2950 3084 c-121 -69 -120 -105 4 -183 60 -37 86 -39 123 -7 25 22
28 30 28 89 0 117 -60 156 -155 101z"/>
<path d="M1131 2864 c-35 -44 -25 -153 15 -168 26 -10 113 23 130 49 19 29 13
49 -26 104 -25 34 -36 41 -64 41 -25 0 -40 -7 -55 -26z"/>
<path d="M2415 2606 c-40 -18 -68 -50 -100 -114 -30 -60 -29 -86 2 -90 18 -3
28 8 52 55 32 65 54 88 72 78 6 -4 32 -51 57 -104 36 -74 52 -96 67 -96 36 0
29 44 -27 154 -61 119 -78 136 -123 117z"/>
<path d="M1457 2481 c-32 -38 -89 -176 -85 -204 2 -15 11 -23 29 -25 22 -3 28
2 33 25 13 51 69 164 80 160 6 -2 20 -18 31 -36 11 -17 29 -46 40 -64 22 -34
52 -42 67 -17 11 17 -47 126 -88 167 -33 33 -76 30 -107 -6z"/>
<path d="M1703 2130 c-106 -61 -115 -111 -39 -225 34 -50 41 -67 31 -75 -7 -6
-23 -34 -35 -62 -21 -48 -22 -63 -17 -198 3 -90 12 -168 22 -205 54 -191 158
-296 355 -356 112 -35 289 -33 422 3 53 15 126 40 161 57 104 46 198 145 233
243 22 62 20 190 -5 260 -41 118 -163 274 -269 345 -58 38 -285 123 -332 123
-48 0 -70 11 -70 35 0 12 -8 29 -17 37 -42 37 -68 42 -228 45 l-160 3 -52 -30z
m362 -60 c5 -9 -20 -70 -30 -70 -14 0 -42 44 -38 61 6 20 57 28 68 9z m239
-125 c141 -41 212 -80 296 -165 120 -120 172 -224 173 -345 1 -171 -108 -278
-353 -346 -125 -35 -294 -33 -403 4 -166 57 -241 140 -284 313 -24 99 -24 297
0 342 10 17 22 32 27 32 5 0 30 -11 56 -25 102 -54 171 -16 254 139 19 36 42
67 50 70 39 10 106 4 184 -19z"/>
<path d="M2327 1603 c-4 -3 -7 -14 -7 -23 0 -9 -11 -22 -23 -27 -58 -27 -83
-182 -42 -252 30 -51 69 -76 120 -76 57 0 104 44 131 120 16 49 17 61 5 117
-17 84 -36 117 -76 134 -36 15 -97 19 -108 7z m80 -81 c19 -12 33 -59 33 -110
0 -84 -61 -140 -103 -94 -39 43 -33 128 11 180 28 33 38 37 59 24z"/>
<path d="M3736 1282 c-8 -16 -42 -59 -75 -96 -61 -67 -77 -108 -46 -120 8 -3
15 -14 15 -25 0 -13 19 -32 53 -55 28 -19 69 -58 90 -85 51 -69 87 -67 87 5 0
37 33 94 84 144 58 56 59 75 3 99 -49 21 -89 59 -121 117 -29 52 -68 59 -90
16z m84 -123 c0 -4 16 -17 35 -30 40 -28 43 -39 14 -65 -12 -10 -30 -36 -40
-57 l-20 -38 -41 35 c-22 19 -58 44 -79 54 l-39 19 63 71 62 70 22 -26 c12
-15 22 -30 23 -33z"/>
<path d="M3450 951 c-5 -11 -10 -33 -10 -50 0 -25 -5 -32 -27 -37 -50 -11 -54
-14 -51 -36 2 -19 11 -24 48 -28 l45 -5 20 -99 c21 -106 40 -135 70 -105 14
13 13 25 -4 109 -11 52 -18 97 -15 100 3 3 36 5 72 5 61 0 67 2 70 21 4 26
-13 33 -95 41 l-63 6 0 36 c0 56 -38 82 -60 42z"/>
</g>
</svg>
